<svg width="1194" height="483" viewBox="0 0 1194 483" fill="none" xmlns="http://www.w3.org/2000/svg">
<path d="M310.543 115.086C310.543 115.085 310.543 115.085 310.542 115.085C306.963 100.978 301.274 87.4647 293.629 74.9172C282.76 57.0778 268.444 41.7961 251.08 29.4959C223.838 10.1995 191.478 0 157.5 0C147.996 0 138.453 0.822818 129.136 2.44551C102.728 7.04462 77.8001 18.181 57.0501 34.6514C26.5492 58.8611 6.81064 92.7948 1.47041 130.202C0.494649 137.035 0 143.968 0 150.811C0 177.66 7.46218 204.023 21.5793 227.049C35.2308 249.315 54.7485 267.982 78.0228 281.031C78.0246 281.032 78.0265 281.033 78.0283 281.034C91.2337 288.437 105.457 293.936 120.304 297.379C132.444 300.194 144.959 301.621 157.5 301.621C187.96 301.621 217.515 293.281 242.971 277.502C267.838 262.089 287.615 240.396 300.165 214.77C310.009 194.667 315 173.149 315 150.811C315 138.764 313.5 126.745 310.543 115.086ZM253.57 47.6189C261.436 54.2301 268.478 61.5883 274.646 69.6361L262.242 66.6852C258.264 65.7387 254.176 66.7406 251.028 69.4309C247.879 72.1218 246.154 76.0899 246.296 80.3168C246.302 80.4915 246.218 80.6603 246.075 80.756L236.964 86.921C236.81 87.0243 236.615 87.0307 236.457 86.9363L223.622 79.364C222.48 78.6897 221.891 77.2932 222.191 75.9669L225.079 63.1963C225.389 61.8286 226.551 60.8471 227.907 60.8082L238.78 60.4946C246.074 60.2843 252.145 54.7668 253.57 47.6189ZM77.9594 251.588L76.1248 264.849C36.6926 239.328 12.5496 196.411 12.5496 150.811C12.5496 146.776 12.739 142.707 13.115 138.648L21.5129 140.054C23.6275 140.409 25.7882 140.588 27.9335 140.588H32.1872C38.0836 140.588 43.94 142.592 48.6767 146.23L55.1219 151.18C55.6732 151.603 56.0325 152.252 56.1057 152.959L56.9793 161.332C57.1202 162.687 56.214 163.917 54.9152 164.132C47.5871 165.346 42.1522 172.059 42.2721 179.745L42.7311 209.219C42.7834 212.567 43.8471 215.745 45.8085 218.406L56.0355 232.288C60.8608 238.838 67.386 243.72 74.9054 246.406C76.9874 247.15 78.272 249.329 77.9594 251.588ZM118.385 283.534C107.77 280.712 97.5343 276.74 87.8561 271.687L90.3816 253.434C91.5475 245.013 86.7585 236.889 78.9961 234.116C73.822 232.267 69.332 228.907 66.0116 224.4L55.7851 210.519C55.4628 210.082 55.288 209.559 55.2794 209.009L54.8205 179.536C54.8008 178.272 55.6947 177.169 56.8987 176.97C64.8008 175.66 70.317 168.177 69.4569 159.934L68.5833 151.561C68.1347 147.259 65.9525 143.313 62.5964 140.736L56.1512 135.786C49.2667 130.499 40.7562 127.587 32.1872 127.587H27.9335C26.4569 127.587 24.9711 127.463 23.5155 127.22L14.944 125.785C21.0281 94.241 38.5217 65.7355 64.6821 44.9707C83.1212 30.3346 105.16 20.2639 128.575 15.7508C132.127 18.812 134.875 22.7381 136.591 27.2301L136.947 28.1625C137.838 30.4946 138.431 32.9408 138.708 35.4328L139.025 38.269C139.586 43.3136 138.841 48.4379 136.871 53.0874L133.459 61.1403C131.225 66.4099 127.56 70.8171 122.859 73.8828L118.608 76.6559C114.301 79.4647 111.783 84.4819 112.036 89.7483L112.611 101.646C112.64 102.253 112.367 102.657 112.133 102.889C111.899 103.12 111.499 103.382 110.913 103.326C110.396 103.275 109.94 102.962 109.693 102.488L104.472 92.4424C102.664 88.9631 99.5197 86.3589 95.8455 85.2964L77.3909 79.9605C72.5411 78.5584 67.3448 78.9752 62.7613 81.1333L58.3667 83.2027C49.1209 87.5565 44.068 98.1575 46.3518 108.408C47.2555 112.467 49.2372 116.171 52.0802 119.116L64.0705 131.538C64.7467 132.237 65.3945 132.984 65.998 133.755L74.2182 144.258C77.8481 148.896 83.2295 151.553 88.9918 151.552C89.0115 151.552 89.0306 151.552 89.0503 151.552L111.445 151.481C111.452 151.481 111.458 151.481 111.466 151.481C113.758 151.481 115.898 152.754 117.054 154.807C119.742 159.583 124.278 162.987 129.498 164.145L137.889 166.008C139.734 166.418 141.31 167.636 142.213 169.353L146.266 177.049C147.891 180.135 150.349 182.608 153.374 184.201L172.419 194.227C173.986 195.052 174.891 196.818 174.674 198.625C174.548 199.671 174.058 200.632 173.296 201.331L166.061 207.961C164.021 209.829 162.438 212.214 161.481 214.855L159.904 219.212C159.424 220.54 158.423 221.613 157.159 222.156L149.453 225.465C142.889 228.284 138.647 234.863 138.647 242.225C138.647 243.052 138.451 243.878 138.08 244.611L118.385 283.534ZM157.5 288.62C148.649 288.62 139.814 287.854 131.137 286.336L149.195 250.647C150.505 248.059 151.198 245.146 151.198 242.224C151.198 240.138 152.4 238.273 154.26 237.474L161.966 234.164C166.429 232.246 169.96 228.46 171.655 223.776L173.232 219.421C173.471 218.761 173.867 218.165 174.376 217.698L181.611 211.068C184.663 208.272 186.621 204.425 187.127 200.238C188 193.011 184.375 185.938 178.106 182.637L159.06 172.611C158.304 172.213 157.689 171.595 157.284 170.824L153.232 163.127C150.576 158.082 145.942 154.5 140.519 153.295L132.128 151.433C130.353 151.039 128.81 149.88 127.895 148.256C124.497 142.223 118.206 138.481 111.466 138.481C111.446 138.481 111.427 138.481 111.407 138.481L89.0127 138.551C89.006 138.551 88.9998 138.551 88.9924 138.551C87.0323 138.551 85.2014 137.648 83.9666 136.07L75.7458 125.567C74.8685 124.446 73.9253 123.361 72.9434 122.345L60.9537 109.924C59.7756 108.704 58.9548 107.17 58.5802 105.487C57.6339 101.238 59.7282 96.8439 63.5599 95.0396L67.9545 92.9701C69.8549 92.0759 72.0083 91.9025 74.0188 92.4838L92.4734 97.8197C92.8776 97.937 93.2234 98.2231 93.4227 98.6062L98.6448 108.652C100.883 112.958 105.025 115.805 109.725 116.269C113.803 116.672 117.844 115.22 120.807 112.286C123.77 109.353 125.351 105.237 125.147 100.996L124.572 89.0988C124.544 88.5189 124.821 87.9669 125.296 87.6578L129.547 84.8847C136.379 80.4283 141.706 74.0249 144.952 66.3665L148.364 58.3136C151.227 51.5564 152.309 44.1103 151.493 36.7782L151.177 33.942C150.774 30.3219 149.912 26.7674 148.617 23.378L148.261 22.4449C147.058 19.2977 145.501 16.3448 143.638 13.6278H143.646C148.249 13.211 152.88 13.0013 157.501 13.0013C187.819 13.0013 216.717 21.7572 241.291 38.3563L241.338 44.3786C241.351 46.0523 240.047 47.4519 238.432 47.4991L227.559 47.8127C220.512 48.0153 214.468 53.123 212.861 60.2327L209.973 73.002C208.414 79.8955 211.473 87.1581 217.412 90.6616L230.246 98.234C232.26 99.422 234.483 100.013 236.701 100.013C239.181 100.013 241.655 99.2741 243.826 97.8063L252.938 91.6412C256.735 89.0727 258.995 84.5603 258.838 79.8662C258.835 79.7987 258.829 79.617 259.014 79.4596C259.201 79.3009 259.37 79.343 259.433 79.357L273.506 82.705C273.855 82.7885 274.212 82.8573 274.572 82.9102L284.52 84.3895C288.846 91.8503 292.424 99.661 295.215 107.734L285.495 105.3C285.108 105.203 284.711 105.119 284.317 105.054L273.703 103.281C262.178 101.355 250.458 105.41 242.362 114.132L240.765 115.853C236.03 120.954 232.827 127.32 231.5 134.262L227.453 155.451C226.042 162.837 226.826 170.392 229.719 177.3C234.771 189.359 245.741 197.776 258.347 199.267L260.313 199.499C265.704 200.138 271.254 199.472 276.361 197.576L283.055 195.093C284.247 194.65 285.586 195.038 286.387 196.061L287.265 197.185C287.676 197.71 287.911 198.37 287.931 199.044L288.248 210.344C264.215 257.948 213.082 288.62 157.5 288.62ZM296.874 188.817L296.142 187.88C293.136 184.033 288.654 181.912 284.052 181.912C282.302 181.912 280.535 182.219 278.824 182.854L272.131 185.337C268.823 186.565 265.227 186.996 261.738 186.582L259.772 186.349C251.608 185.384 244.504 179.933 241.233 172.124C239.358 167.651 238.851 162.758 239.764 157.975L243.811 136.786C244.67 132.29 246.745 128.168 249.812 124.864L251.409 123.143C256.651 117.496 264.24 114.869 271.705 116.117L282.318 117.89C282.393 117.903 282.469 117.918 282.545 117.937L299.294 122.13C301.39 131.531 302.45 141.161 302.45 150.81C302.45 163.83 300.581 176.547 296.874 188.817Z" fill="#FFB6AB" fill-opacity="0.7"/>
<path d="M680.718 482.474C679.55 482.199 677.81 481.491 676.851 480.9C675.892 480.309 673.787 479.634 672.173 479.4C670.559 479.165 666.876 478.044 663.989 476.909C661.102 475.774 654.712 473.905 649.79 472.757C644.867 471.608 640.481 470.448 640.042 470.179C639.603 469.91 638.611 469.6 637.838 469.491C634.694 469.048 620.209 464.149 619.555 463.309C619.168 462.811 617.111 462.263 614.984 462.09C612.857 461.917 609.85 461.459 608.303 461.073C606.756 460.686 602.959 459.737 599.865 458.963C596.771 458.189 591.708 456.797 588.614 455.869C585.52 454.942 582.034 454.002 580.867 453.782C577.951 453.232 571.957 450.327 572.546 449.749C572.81 449.489 571.967 449.277 570.673 449.277C568.354 449.277 562.441 447.626 555.563 445.057C551.288 443.46 538.391 440.99 534.327 440.99C529.86 440.99 524.427 442.303 519.387 444.601C515.184 446.517 514.391 446.647 508.487 446.389C504.482 446.214 501.26 445.687 499.803 444.969C498.529 444.342 495.998 443.618 494.178 443.361C492.358 443.105 489.277 442.191 487.332 441.331C485.388 440.471 482.381 439.284 480.652 438.694C477.085 437.477 472.703 435.327 471.063 433.989C470.402 433.451 468.076 433.081 465.293 433.073C457.838 433.05 433.471 434.179 430.393 434.69C428.846 434.948 421.41 435.049 413.868 434.916C386.85 434.439 383.142 434.445 373.082 434.977C367.474 435.274 360.829 435.47 358.315 435.413C352.946 435.29 353.875 435.234 346.361 436.139C338.754 437.056 329.935 437.104 328.293 436.237C327.594 435.868 326.447 435.39 325.743 435.174C324.853 434.901 324.596 434.374 324.898 433.44C325.136 432.703 324.938 431.48 324.456 430.723C323.701 429.536 323.818 429.152 325.302 427.929C326.248 427.149 328.203 426.311 329.645 426.068C333.2 425.468 334.106 424.65 335.679 420.618C336.573 418.327 337.828 416.632 339.408 415.58C340.718 414.708 342.215 413.008 342.734 411.801C343.71 409.536 346.629 406.461 347.803 406.461C348.17 406.461 348.47 405.544 348.47 404.424C348.47 403.303 349.577 400.584 350.93 398.381C353.762 393.767 353.935 392.491 351.986 390.577C350.316 388.937 350.253 387.947 351.7 386.088C352.776 384.707 352.776 384.707 353.836 386.088C354.418 386.848 355.111 387.798 355.374 388.2C356.216 389.483 362.007 391.732 367.808 393.029C372.661 394.114 377.443 394.316 402.617 394.499C418.667 394.616 432.274 394.737 432.854 394.767C433.435 394.798 443.768 394.598 455.817 394.323L477.726 393.822L480.844 395.617C482.559 396.604 486.393 399.58 489.364 402.23C492.413 404.949 495.685 407.246 496.877 407.503C499.409 408.049 503.175 411.007 503.175 412.45C503.175 414.399 504.841 412.933 506.89 409.181C508.019 407.115 509.384 404.934 509.926 404.335C510.467 403.735 510.91 403.08 510.91 402.88C510.91 402.679 512.443 399.898 514.317 396.7C516.192 393.501 518.268 389.279 518.932 387.317C519.595 385.355 520.831 382.813 521.677 381.668C526.221 375.523 527.403 373.888 530.958 368.824C533.091 365.785 535.434 362.025 536.164 360.467C536.894 358.909 540.334 353.471 543.808 348.382C552.781 335.238 554.156 332.966 561.183 319.663C562.023 318.073 563.992 315.105 565.559 313.067C567.125 311.029 569.271 307.669 570.327 305.599C571.382 303.53 572.956 300.905 573.824 299.765C574.691 298.626 576.116 296.295 576.989 294.586C577.862 292.876 580.325 288.879 582.463 285.702C584.6 282.525 586.954 278.36 587.695 276.446C588.436 274.531 590.629 270.449 592.569 267.374C594.509 264.299 596.47 261.164 596.926 260.408C597.382 259.652 598.709 257.477 599.875 255.574C601.041 253.671 602.443 251.338 602.991 250.388C603.538 249.439 604.97 246.952 606.172 244.863C607.374 242.774 608.804 239.977 609.349 238.648C609.894 237.319 611.702 234.13 613.365 231.562C615.029 228.995 616.39 226.143 616.39 225.225C616.39 224.171 617.212 222.924 618.618 221.843L620.846 220.131L617.402 213.079C613.712 205.524 611.483 203.087 605.178 199.717C599.605 196.738 592.595 196.242 584.718 198.269C582.219 198.911 578.277 199.706 575.956 200.035C573.635 200.364 570.155 200.998 568.221 201.444C563.393 202.557 525.854 202.522 517.942 201.397C514.654 200.93 508.541 200.297 504.357 199.991C498.087 199.533 496.473 199.181 495.18 197.988L493.611 196.541L490.969 200.976C489.516 203.415 488.089 205.509 487.798 205.628C486.968 205.969 483.009 213.234 482.505 215.341C482.256 216.385 481.765 217.24 481.415 217.24C480.704 217.24 476.453 224.634 476.453 225.871C476.453 226.304 475.402 227.881 474.118 229.373C472.834 230.866 471.095 233.502 470.255 235.231C469.415 236.96 467.284 240.035 465.521 242.064C463.757 244.092 461.721 246.894 460.997 248.289C460.272 249.684 459.16 251.248 458.526 251.765C457.892 252.282 456.878 253.659 456.272 254.827C455.666 255.994 453.658 258.849 451.81 261.172C449.962 263.494 447.775 266.694 446.951 268.281C446.126 269.869 444.427 272.319 443.175 273.726C441.923 275.134 439.672 278.15 438.173 280.429C436.674 282.708 434.03 286.391 432.296 288.614C430.563 290.837 428.477 293.832 427.659 295.27C425.483 299.1 417.715 310.593 416.229 312.183C415.525 312.935 414.912 313.868 414.867 314.255C414.822 314.641 414.737 315.346 414.678 315.821C414.619 316.296 414.118 316.684 413.564 316.684C413.01 316.684 411.844 317.694 410.972 318.929C410.1 320.163 408.496 322.194 407.408 323.442C406.32 324.689 405.43 326.198 405.43 326.795C405.43 327.392 404.637 328.492 403.669 329.241C402.7 329.989 400.901 332.053 399.671 333.829C398.44 335.604 396.239 338.209 394.78 339.618C393.321 341.027 391.437 343.507 390.593 345.131C388.819 348.547 385.864 352.345 381.872 356.34C380.325 357.889 378.268 360.424 377.301 361.974C376.335 363.525 373.229 366.831 370.401 369.323C367.572 371.814 364.566 374.741 363.72 375.827C360.834 379.532 355.486 384.434 354.79 384.011C353.631 383.308 354.011 381.693 355.522 380.899C356.306 380.486 356.79 379.899 356.598 379.592C356.405 379.286 357.583 377.997 359.215 376.728C360.847 375.459 362.432 374.022 362.736 373.537C363.04 373.051 364.723 371.685 366.475 370.501C368.288 369.276 371.002 366.369 372.775 363.752C377.178 357.254 379.608 354.234 384.295 349.432C386.549 347.122 388.948 344.17 389.625 342.871C390.778 340.661 392.93 337.893 396.488 334.043C397.317 333.145 398.324 331.879 398.724 331.229C402.538 325.04 409.856 315.174 412.009 313.32C412.727 312.702 416.426 307.534 420.228 301.837C424.029 296.139 428.03 290.279 429.118 288.813C430.206 287.348 432.448 284.085 434.1 281.562C435.752 279.04 438.651 275.387 440.541 273.446C442.431 271.504 444.622 268.676 445.409 267.16C446.642 264.787 454.573 252.744 456.227 250.733C458.248 248.278 467.323 235.159 469.069 232.17C470.23 230.184 471.849 227.643 472.669 226.525C473.488 225.406 474.405 223.714 474.705 222.765C475.006 221.815 476.076 219.826 477.083 218.345C479.532 214.743 479.799 214.304 480.278 213.096C480.503 212.527 481.318 211.128 482.088 209.989C482.858 208.849 484.219 206.518 485.112 204.809C488.041 199.204 491.385 194.492 492.731 194.072C493.477 193.84 495.048 194.249 496.329 195.007C499.829 197.08 502.891 197.758 510.84 198.218C514.862 198.45 518.452 198.822 518.816 199.043C520.088 199.815 552.654 200.029 560.407 199.317C564.705 198.922 573.72 197.501 580.441 196.159C596.227 193.006 600.847 193.216 607.472 197.385C615.761 202.602 617.039 204.328 622.097 217.137C622.725 218.727 622.832 218.676 627.157 214.72C632.248 210.065 638.702 205.63 642.76 204.001C653.887 199.533 652.838 199.756 660.34 200.256C670.305 200.92 671.141 201.071 675.459 202.986C681.262 205.56 690.137 208.728 694.054 209.625C695.966 210.063 698.814 210.988 700.383 211.682C701.952 212.375 704.66 213.155 706.4 213.414C713.552 214.478 724.847 217.611 732.975 220.785C737.729 222.641 743.583 224.44 745.984 224.783C748.385 225.126 752.091 226.194 754.218 227.157C756.478 228.181 761.155 229.363 765.469 230.003C775.729 231.523 775.865 231.564 777.108 233.425C778.056 234.847 778.089 235.518 777.332 238.076C776.846 239.72 776.006 241.753 775.465 242.594C774.535 244.04 774.667 244.238 777.884 246.242C780.999 248.182 781.72 248.344 786.453 248.166C791.453 247.977 791.676 248.038 793.309 250.043C794.237 251.182 794.998 252.807 795 253.654C795.005 255.843 792.985 260.689 790.931 263.418C788.619 266.489 786.565 271.906 786.565 274.933C786.565 277.593 784.966 281.917 783.536 283.12C783.039 283.539 782.223 285.125 781.723 286.644C780.789 289.482 773.057 304.908 771.348 307.342C770.822 308.092 770.391 309.412 770.391 310.277C770.391 311.143 770.075 311.85 769.688 311.85C769.301 311.85 768.985 312.453 768.985 313.191C768.985 313.928 768.722 314.691 768.401 314.886C768.08 315.081 766.93 317.352 765.847 319.933C763.905 324.56 753.998 345.055 752.73 347.07C751.635 348.81 746.748 358.903 744.836 363.374C743.844 365.694 739.676 374.24 735.574 382.365C731.472 390.49 727.314 398.847 726.335 400.936C725.355 403.025 724.267 405.274 723.915 405.933C723.564 406.593 723.277 407.564 723.277 408.092C723.277 409.358 720.643 415.282 715.558 425.452C713.279 430.01 710.867 435.604 710.197 437.882C709.527 440.161 708.244 443.485 707.346 445.268C706.448 447.051 705.012 450.625 704.155 453.21C703.298 455.794 701.725 459.271 700.66 460.934C699.595 462.598 698.512 465.395 698.253 467.149C697.994 468.904 697.441 470.962 697.025 471.721C696.609 472.481 696.247 473.413 696.222 473.793C696.018 476.797 691.737 480.662 686.781 482.317C684.155 483.195 683.815 483.204 680.718 482.474V482.474ZM690.604 477.57C691.631 476.733 692.009 474.048 691.211 473.264C690.979 473.036 690.028 473.19 689.098 473.606C688.168 474.022 687.208 474.167 686.964 473.927C686.379 473.352 688.062 469.41 689.167 468.77C690.031 468.269 692.607 463.821 698.449 452.741C700.148 449.518 701.999 446.628 702.563 446.319C703.126 446.009 703.587 445.173 703.587 444.462C703.587 443.75 704.314 442.289 705.201 441.216C706.089 440.142 707.879 436.933 709.179 434.084C710.479 431.236 712.126 428.08 712.839 427.072C713.552 426.064 714.135 424.657 714.135 423.945C714.135 423.234 714.681 421.886 715.349 420.95C716.016 420.014 716.598 418.238 716.642 417.003C716.686 415.768 717.218 414.211 717.824 413.544C718.431 412.877 720.092 409.393 721.516 405.801C722.94 402.21 724.709 398.517 725.449 397.594C726.188 396.671 726.793 395.566 726.793 395.139C726.793 394.713 728.149 391.725 729.808 388.499C731.466 385.274 733.722 380.46 734.822 377.801C735.923 375.143 738.006 370.481 739.453 367.443C740.9 364.404 742.475 360.83 742.952 359.501C745.154 353.365 745.903 351.692 747.518 349.294C748.47 347.881 750.491 343.928 752.009 340.51C753.527 337.091 755.59 332.896 756.594 331.187C757.598 329.478 758.424 327.218 758.429 326.166C758.434 325.114 759.228 323.023 760.195 321.519C761.162 320.014 761.953 318.322 761.953 317.758C761.953 317.194 762.561 316.414 763.303 316.023C764.046 315.633 765.039 314.146 765.51 312.719C765.982 311.292 766.975 309.273 767.717 308.234C770.451 304.407 774.812 294.266 775.017 291.259C775.14 289.454 775.778 287.606 776.58 286.735C778.274 284.894 781.388 276.824 782.343 271.796C782.74 269.707 783.66 267.202 784.386 266.229C786.672 263.169 790.081 256.022 790.081 254.291C790.081 251.906 788.927 251.304 783.596 250.904C778.169 250.498 778.054 251.025 782.692 255.041C784.991 257.031 785.22 257.524 784.781 259.53C784.51 260.769 783.373 263.492 782.253 265.581C778.673 272.263 772.486 285.803 772.145 287.703C771.703 290.17 770.184 293.338 766.859 298.729C765.336 301.198 764.084 303.599 764.076 304.064C764.069 304.53 763.431 305.929 762.659 307.172C761.887 308.416 761.254 310.153 761.252 311.032C761.249 312.938 760.011 315.432 758.686 316.201C758.162 316.505 757.734 317.063 757.734 317.442C757.734 318.223 749.119 338.488 747.202 342.216C745.605 345.322 744.06 348.831 742.936 351.904C742.45 353.234 740.803 356.957 739.275 360.178C737.747 363.399 735.999 367.284 735.39 368.81C734.782 370.337 733.627 372.377 732.824 373.344C731.235 375.256 729.722 378.434 725.606 388.505C724.132 392.114 720.948 398.881 718.53 403.544C716.113 408.208 714.135 412.426 714.135 412.92C714.135 413.413 713.362 414.529 712.418 415.401C711.473 416.272 709.838 419.357 708.783 422.255C707.728 425.153 706.641 427.834 706.367 428.214C706.093 428.594 705.627 429.682 705.332 430.631C705.037 431.581 703.382 435.31 701.656 438.918C699.93 442.527 697.738 447.106 696.785 449.094C695.832 451.082 695.229 452.989 695.445 453.332C695.66 453.675 695.386 454.322 694.835 454.771C694.285 455.219 693.159 456.859 692.333 458.415C691.508 459.97 689.921 462.079 688.807 463.101C687.693 464.123 686.256 466.248 685.614 467.822C684.574 470.377 684.196 470.685 682.105 470.685C680.816 470.685 679.553 470.354 679.298 469.95C678.991 469.462 678.427 469.577 677.622 470.292C676.519 471.273 675.999 471.236 671.891 469.887C669.406 469.071 665.845 467.765 663.978 466.984C662.111 466.204 659.719 465.63 658.661 465.709C657.46 465.799 654.939 464.787 651.94 463.011C647.674 460.484 646.78 460.208 643.896 460.528C640.688 460.883 633.597 459.578 629.399 457.859C628.239 457.383 625.549 456.49 623.422 455.873C621.295 455.257 617.339 454.106 614.632 453.317C611.925 452.527 607.336 450.992 604.436 449.907C601.535 448.821 596.922 447.486 594.184 446.94C591.446 446.394 588.124 445.3 586.8 444.507C585.263 443.587 583.198 443.066 581.08 443.064C579.257 443.063 576.16 442.44 574.198 441.681C572.236 440.921 569.983 440.3 569.192 440.3C567.88 440.3 559.467 437.081 556.398 435.405C555.697 435.022 554.532 434.894 553.809 435.119C553.085 435.344 550.653 434.942 548.403 434.224C546.153 433.506 542.912 432.87 541.2 432.811C539.489 432.752 537.415 432.27 536.592 431.74C535.768 431.21 532.567 429.993 529.478 429.035C524.165 427.386 523.638 427.343 519.701 428.242C517.412 428.765 515.394 429.05 515.217 428.876C515.04 428.702 515.343 428.55 515.891 428.539C516.631 428.523 516.584 428.344 515.706 427.841C514.918 427.389 513.958 427.417 512.823 427.925C511.368 428.576 510.837 428.428 509.155 426.896C508.073 425.912 506.583 425.107 505.843 425.107C505.103 425.107 504.667 424.838 504.874 424.509C505.081 424.18 506.084 424.067 507.104 424.259C508.785 424.574 508.909 424.454 508.439 422.957C508.155 422.05 507.527 420.553 507.044 419.629C506.173 417.964 506.154 417.976 504.71 421.183C503.909 422.961 502.958 424.416 502.596 424.416C502.234 424.416 499.915 422.468 497.442 420.087C494.97 417.706 491.04 414.8 488.709 413.628C486.379 412.457 483.058 410.439 481.33 409.144C477.294 406.118 468.413 403.624 461.686 403.628C456.367 403.631 444.309 404.51 441.639 405.089C440.089 405.426 436.133 405.741 432.849 405.789C429.564 405.838 425.77 405.972 424.416 406.088C423.062 406.204 416.892 406.49 410.704 406.725C404.515 406.96 397.237 407.447 394.53 407.807C391.823 408.167 379.956 408.648 368.16 408.875C344.752 409.326 344.954 409.287 344.954 413.388C344.954 415.721 347.623 417.102 350.242 416.124C351.381 415.698 353.213 415.7 355.343 416.129C358.281 416.72 367.32 417.647 369.215 417.55C372.301 417.393 407.915 416.743 410.532 416.796C412.371 416.833 414.531 416.519 415.331 416.099C416.131 415.679 421.746 415.057 427.808 414.717C433.871 414.378 441.363 413.795 444.457 413.422C451.962 412.519 462.779 412.288 466.256 412.957C469.641 413.608 476.394 416.092 477.859 417.224C479.728 418.669 485.015 421.072 485.429 420.665C486.266 419.843 483.911 416.878 481.809 416.104C480.603 415.66 477.358 414.241 474.597 412.951C471.836 411.66 468.789 410.604 467.827 410.604C466.864 410.604 465.646 410.094 465.12 409.471C464.293 408.493 463.032 408.394 455.912 408.745C451.375 408.969 447.041 409.479 446.282 409.878C445.523 410.277 442.806 410.604 440.244 410.604C437.683 410.604 434.26 410.909 432.638 411.283C426.191 412.767 372.418 414.405 359.37 413.515C354.206 413.163 350.757 413.191 350.483 413.587C349.866 414.476 348.333 413.452 348.91 412.536C349.224 412.037 352.104 411.96 357.887 412.298C365.588 412.748 373.046 412.75 389.607 412.304C397.695 412.087 419.467 410.706 426.877 409.94C442.868 408.287 449.272 407.748 457.144 407.396C465.404 407.026 465.724 407.066 470.154 409.044C477.541 412.343 478.563 412.698 478.563 411.97C478.563 410.155 481.283 411.744 485.383 415.953C488.729 419.387 490.333 420.558 491.489 420.41C493.595 420.138 496.846 422.744 496.846 424.703C496.846 425.567 497.416 426.779 498.113 427.399C499.404 428.546 509.092 430.271 510.262 429.561C510.615 429.347 511.272 429.966 511.723 430.937C512.654 432.945 514.117 433.191 515.867 431.635C517.599 430.096 520.988 429.987 521.3 431.461C521.479 432.309 520.364 433.225 517.304 434.741C513.467 436.644 512.433 436.843 506.535 436.824C501.915 436.808 499.612 436.506 498.645 435.788C497.894 435.23 496.245 434.774 494.981 434.774C493.555 434.774 492.162 434.226 491.315 433.333C490.166 432.123 489.703 432.021 488.414 432.699C486.48 433.715 485.958 433.234 486.974 431.37C487.609 430.206 487.55 429.838 486.68 429.51C486.083 429.285 485.595 428.513 485.595 427.794C485.595 426.449 486.625 426.021 487.296 427.088C487.505 427.419 488.631 427.877 489.799 428.107C491.432 428.427 491.923 428.896 491.923 430.13C491.923 432.058 493.14 433.393 494.899 433.393C496.304 433.393 497.552 431.207 496.369 430.819C495.967 430.688 495.04 430.129 494.308 429.578C493.02 428.607 493.033 428.534 494.718 427.239L496.458 425.902L495.07 424.295C492.525 421.35 491.132 420.826 491.72 423.034C492.137 424.601 491.73 424.732 489.723 423.677C488.779 423.18 488.038 423.166 487.467 423.631C486.867 424.12 485.098 423.423 481.454 421.262C478.615 419.578 476.086 418.2 475.835 418.2C475.583 418.2 474.176 417.568 472.707 416.795C471.238 416.022 467.92 415.13 465.334 414.814C458.915 414.028 441.897 415.041 432.503 416.767C428.248 417.548 419.072 418.545 412.11 418.982C398.514 419.835 398.424 419.837 388.904 419.511C385.423 419.392 378.778 419.53 374.137 419.817C368.401 420.172 364.122 420.071 360.776 419.502C358.069 419.041 353.797 418.622 351.283 418.571C348.769 418.52 345.985 418.234 345.096 417.937C344.095 417.601 343.095 417.709 342.468 418.22C341.911 418.674 341.017 418.88 340.481 418.678C339.047 418.137 337.486 421.736 337.841 424.761C337.886 425.14 340.003 425.537 342.546 425.641C347.476 425.844 348.27 424.83 343.822 424.01C342.046 423.683 341.55 423.339 342.089 422.809C342.629 422.279 343.556 422.319 345.324 422.947C346.687 423.431 348.69 423.635 349.775 423.401C350.86 423.167 364.538 423.04 380.171 423.119C420.359 423.32 422.732 423.264 424.967 422.05C430.177 419.22 431.978 418.691 436.253 418.739C438.702 418.767 442.003 418.34 443.588 417.791C445.483 417.134 446.707 417.025 447.163 417.473C447.934 418.231 447.931 418.232 441.814 419.9C439.012 420.664 437.37 420.797 436.483 420.331C435.599 419.867 434.239 419.971 432.095 420.667C429.025 421.664 429.07 421.672 435.667 421.324C439.341 421.13 443.455 420.806 444.809 420.604C446.162 420.402 452.695 419.916 459.327 419.524C470.895 418.839 471.492 418.868 474.083 420.232C475.569 421.013 477.184 421.653 477.673 421.653C478.162 421.653 478.563 422.245 478.563 422.968C478.563 424.41 477.262 424.411 468.366 422.974C461.387 421.846 455.691 422.076 438.128 424.196C434.07 424.686 428.778 424.862 401.21 425.423C390.188 425.648 379.27 425.989 376.95 426.181C372.768 426.528 370.856 426.606 345.657 427.463C333.786 427.866 327.896 428.507 326.88 429.505C325.903 430.465 327.422 432.027 328.963 431.647C329.855 431.427 331.379 431.653 332.351 432.148C334.191 433.085 339.456 432.869 350.58 431.398C356.254 430.648 389.89 428.939 394.53 429.165C412.049 430.019 452.714 429.086 463.092 427.592C466.38 427.119 470.81 426.781 472.937 426.841C483.141 427.13 482.663 427.022 483.876 429.324C484.497 430.505 484.829 432.161 484.614 433.005C484.092 435.046 487.519 437.562 491.472 438.042C493.074 438.236 496.194 438.979 498.406 439.693C501.341 440.639 504.487 440.99 510.053 440.99C517.49 440.99 517.725 440.942 519.568 439.053C520.608 437.988 521.458 436.763 521.458 436.331C521.458 435.1 522.627 434.67 527.665 434.051C531.331 433.601 532.698 433.692 533.915 434.47C535.942 435.765 540.689 437.286 544.638 437.906C546.365 438.177 549.551 439.284 551.718 440.365C553.885 441.447 557.344 442.687 559.405 443.121C561.466 443.555 564.45 444.489 566.038 445.197C567.625 445.905 569.873 446.494 571.034 446.506C572.194 446.518 574.725 447.248 576.659 448.128C578.593 449.008 584.447 450.727 589.668 451.948C601.435 454.7 602.952 455.077 612.42 457.601C616.618 458.72 620.792 459.636 621.696 459.636C622.6 459.636 623.535 459.947 623.774 460.326C624.013 460.706 624.682 461.017 625.26 461.017C625.839 461.017 627.705 461.64 629.406 462.401C633.729 464.335 652.957 469.016 652.957 468.134C652.957 467.991 653.669 468.255 654.539 468.719C655.409 469.184 656.596 469.632 657.176 469.715C657.756 469.798 660.762 470.779 663.856 471.894C666.95 473.01 671.467 474.348 673.894 474.867C676.765 475.482 678.853 476.389 679.871 477.464C681.27 478.941 681.87 479.079 685.506 478.762C687.744 478.567 690.039 478.031 690.604 477.57V477.57ZM523.743 430.155C524.42 429.982 525.528 429.982 526.204 430.155C526.881 430.329 526.328 430.471 524.974 430.471C523.62 430.471 523.066 430.329 523.743 430.155ZM684.803 464.988C685.778 462.994 686.79 460.352 687.051 459.118C687.38 457.561 687.924 456.874 688.828 456.874C690.471 456.874 692.337 454.236 694.448 448.932C695.355 446.653 696.516 444.175 697.029 443.426C697.542 442.677 697.962 441.079 697.962 439.874C697.962 438.533 698.384 437.526 699.052 437.274C699.652 437.048 700.771 435.383 701.54 433.574C702.308 431.766 703.375 429.354 703.911 428.214C708.21 419.081 708.707 417.539 707.723 416.37C706.894 415.383 706.9 415.165 707.765 414.879C710.734 413.899 717.513 402.598 722.963 389.541C727.178 379.443 731.069 371.043 732.079 369.86C733.183 368.567 736.97 361.128 737.702 358.816C738.002 357.87 739.115 355.229 740.176 352.946C741.237 350.664 742.34 348.02 742.626 347.07C742.913 346.121 744.566 342.547 746.3 339.128C748.034 335.71 750.502 330.116 751.785 326.698C753.068 323.28 754.942 318.83 755.95 316.811C756.958 314.792 758.281 311.696 758.891 309.931C759.501 308.167 761.67 303.448 763.711 299.446C768.386 290.277 771.476 283.687 772.142 281.464C772.426 280.515 774.839 275.34 777.503 269.965C782.368 260.149 783.234 257.502 781.349 258.212C780.801 258.419 780.178 258.141 779.965 257.596C779.293 255.875 778.266 256.511 777.386 259.193C776.919 260.617 776.301 262.093 776.012 262.473C775.724 262.853 775.007 264.718 774.42 266.617C771.654 275.567 768.412 283.212 763.878 291.478C761.394 296.005 759.168 300.805 758.735 302.568C758.129 305.028 756.758 308.092 751.027 319.792C748.608 324.73 745.448 331.877 744.004 335.676C742.56 339.474 740.675 343.358 739.815 344.308C738.954 345.257 738.063 346.56 737.834 347.202C737.604 347.845 735.857 350.486 733.952 353.072C731.318 356.646 730.043 359.296 728.641 364.113C727.178 369.143 725.799 371.931 721.967 377.61C719.311 381.547 716.541 385.348 715.812 386.058C714.243 387.586 712.057 390.993 709.589 395.757C707.771 399.267 706.067 402.12 703.193 406.461C702.313 407.79 700.743 410.898 699.705 413.367C698.666 415.835 697.251 419.098 696.56 420.618C695.87 422.137 694.288 426.332 693.045 429.941C691.802 433.549 690.391 437.434 689.91 438.573C688.509 441.889 685.87 449.469 685.462 451.349C685.256 452.298 684.051 454.271 682.785 455.732C681.465 457.254 680.284 459.539 680.019 461.084C679.269 465.438 678.006 464.383 678.548 459.856C678.874 457.127 679.921 454.346 681.985 450.721C683.617 447.854 685.063 445.191 685.199 444.803C685.334 444.415 686.227 442.126 687.182 439.715C688.137 437.305 688.723 435.14 688.484 434.905C688.245 434.671 686.774 435.944 685.216 437.734C683.657 439.525 681.932 440.99 681.382 440.99C680.032 440.99 680.121 440.382 681.888 437.537C682.714 436.208 684.463 432.057 685.775 428.312C687.087 424.568 688.921 420.527 689.849 419.331C690.777 418.136 692.53 414.984 693.743 412.328C694.957 409.672 696.38 407.033 696.905 406.462C697.431 405.892 698.93 402.939 700.236 399.9C701.543 396.862 703.623 393.008 704.858 391.337C706.093 389.666 707.103 387.93 707.103 387.48C707.103 387.031 708.346 384.921 709.864 382.792C711.383 380.663 713.282 377.463 714.085 375.68C714.888 373.898 717.135 370.148 719.078 367.348C721.021 364.547 722.911 361.481 723.278 360.533C723.833 359.1 725.386 358.061 725.386 359.123C725.386 360.087 723.274 363.9 720.332 368.25C718.49 370.972 716.444 374.546 715.785 376.191C714.458 379.508 712.992 381.981 711.207 383.917C710.557 384.621 709.626 386.175 709.138 387.369C708.65 388.564 707.044 391.311 705.568 393.474C704.092 395.637 702.884 397.691 702.884 398.039C702.884 399.111 697.998 409.12 697.254 409.571C696.868 409.805 695.635 411.813 694.514 414.032C693.393 416.251 691.679 419.417 690.706 421.068C688.975 424.005 685.018 434.724 685.492 435.19C685.624 435.32 686.674 434.769 687.825 433.965C689.494 432.801 690.467 430.95 692.623 424.835C694.111 420.616 696.237 415.573 697.348 413.628C698.459 411.683 699.368 409.725 699.368 409.278C699.368 408.831 700.562 406.694 702.02 404.528C703.479 402.363 706.06 397.949 707.756 394.721C710.731 389.055 713.507 384.99 718.05 379.647C721.18 375.965 724.26 370.211 726.061 364.68C728.002 358.718 729.721 355.366 733.21 350.741C737.173 345.487 740.39 339.406 743.737 330.841C745.37 326.663 747.368 322.157 748.177 320.828C752.285 314.074 757.883 300.801 756.623 300.801C756.107 300.801 747.186 314.579 747.186 315.376C747.186 316.236 741.823 328.2 739.325 332.913C737.209 336.906 730.382 346.788 727.453 350.099C726.07 351.662 723.718 354.805 722.226 357.084C720.735 359.363 718.951 361.854 718.262 362.62C716.316 364.787 711.984 372.554 705.369 385.743C702.035 392.39 698.86 398.605 698.313 399.555C697.767 400.504 695.711 404.234 693.745 407.842C691.779 411.45 689.313 415.956 688.264 417.855C686.303 421.405 685 424.272 682.613 430.288C681.859 432.189 680.606 434.83 679.829 436.158C679.052 437.486 678.194 439.35 677.921 440.3C677.649 441.249 676.509 443.173 675.388 444.575C674.267 445.977 673.349 447.553 673.349 448.076C673.349 448.6 672.597 449.671 671.676 450.457C670.756 451.243 669.846 452.309 669.654 452.826C669.402 453.508 669.082 453.56 668.49 453.016C667.877 452.453 668.115 451.509 669.448 449.218C670.424 447.541 671.227 445.626 671.231 444.961C671.237 444.296 671.655 443.752 672.162 443.752C673.407 443.752 675.598 440.732 677.832 435.935C678.848 433.755 679.678 431.817 679.678 431.628C679.678 431.438 681.285 427.829 683.25 423.606C685.214 419.384 686.671 415.367 686.488 414.679C686.283 413.908 686.735 413.057 687.669 412.456C688.502 411.92 690.568 408.876 692.261 405.691C693.954 402.506 695.73 399.434 696.207 398.864C696.685 398.295 698.267 395.187 699.724 391.958C705.095 380.056 715.106 362.204 718.699 358.12C719.535 357.17 721.24 354.786 722.489 352.821C723.739 350.856 725.209 348.883 725.757 348.436C729.683 345.236 743.13 321.9 744.98 315.077C745.374 313.622 746.453 311.447 747.378 310.242C751.66 304.667 755.829 296.786 758.068 290.037C758.582 288.485 759.93 285.378 761.062 283.132C762.194 280.885 763.539 277.96 764.05 276.63C764.562 275.301 766.515 271.026 768.389 267.13C770.264 263.234 771.798 259.901 771.798 259.723C771.798 259.546 772.762 257.332 773.941 254.804C776.346 249.647 776.376 248.072 774.073 247.75C772.071 247.47 771.174 249.442 772.779 250.595C773.817 251.34 773.386 252.525 768.579 262.129C765.632 268.016 762.523 273.764 761.668 274.904C759.878 277.291 756.756 283.13 756.002 285.5C755.719 286.39 754.559 288.47 753.423 290.122C752.288 291.774 750.762 294.904 750.032 297.078C749.302 299.251 748.221 301.295 747.63 301.62C746.623 302.174 744.729 305.749 740.778 314.56C739.855 316.619 738.074 319.572 736.82 321.12C735.567 322.669 734.539 324.158 734.535 324.43C734.531 324.701 733.579 326.394 732.419 328.19C731.258 329.987 730.309 331.831 730.309 332.287C730.309 334.216 721.163 347.701 718.062 350.346C717.062 351.198 716.245 352.315 716.245 352.829C716.245 353.342 715.576 354.354 714.758 355.078C713.94 355.801 712.984 357.015 712.634 357.774C712.284 358.534 711.134 360.473 710.078 362.083C706.723 367.197 702.181 374.638 702.181 375.018C702.181 375.219 702.645 375.384 703.212 375.384C704.061 375.384 704.011 375.781 702.932 377.629C702.212 378.863 701.405 380.589 701.139 381.463C700.873 382.338 699.527 384.98 698.148 387.333C696.768 389.687 695.01 392.856 694.241 394.375C693.472 395.895 691.938 398.219 690.831 399.54C689.725 400.861 688.82 402.227 688.82 402.576C688.82 402.925 687.712 404.849 686.359 406.852C685.005 408.854 683.898 411.033 683.898 411.692C683.898 412.351 683.163 413.853 682.266 415.028C680.448 417.408 677.569 423.053 677.569 424.236C677.569 424.656 676.823 425.879 675.911 426.953C674.201 428.966 669.13 438.835 669.13 440.149C669.13 440.556 669.642 440.989 670.267 441.112C671.164 441.288 670.794 442.13 668.509 445.115C666.737 447.428 665.614 449.639 665.614 450.812C665.614 451.867 665.535 452.73 665.437 452.73C665.34 452.73 662.096 452.126 658.229 451.388C647.77 449.392 641.401 447.579 639.032 445.922C637.869 445.108 635.859 444.441 634.565 444.438C625.966 444.417 610.439 441.4 603.732 438.446C599.382 436.53 589.79 433.504 589.371 433.916C588.562 434.71 589.008 435.354 591.28 436.67C594.047 438.274 596.645 438.943 600.963 439.165C602.858 439.262 605.015 439.919 606.237 440.772C607.373 441.565 610.677 442.896 613.577 443.73C616.478 444.564 620.136 445.663 621.706 446.173C623.276 446.682 627.5 447.422 631.094 447.816C634.687 448.21 637.991 448.814 638.436 449.159C638.88 449.503 640.985 450.331 643.112 450.999C645.239 451.667 648.598 452.928 650.575 453.801C653.747 455.2 660.666 456.874 663.282 456.874C663.791 456.874 664.208 456.417 664.208 455.859C664.208 454.442 668.02 457.044 671.523 460.851C673.004 462.462 674.601 463.779 675.072 463.779C675.543 463.779 677.167 464.854 678.682 466.168C680.197 467.481 681.795 468.569 682.233 468.585C682.671 468.601 683.827 466.982 684.803 464.988V464.988ZM690.93 442.611C690.93 442.19 692.98 437.754 696.946 429.595C697.869 427.696 699.47 423.967 700.503 421.308C703.613 413.308 714.62 390.791 715.759 390.1C717.317 389.154 716.521 391.202 711.39 401.341C708.331 407.385 704.981 414.506 703.947 417.165C702.913 419.824 701.277 424.019 700.313 426.488C699.348 428.957 697.846 432.22 696.975 433.739C696.104 435.258 694.836 437.977 694.157 439.782C693.478 441.586 692.474 443.062 691.926 443.062C691.378 443.062 690.93 442.859 690.93 442.611V442.611ZM675.409 466.714C675.381 466.43 673.318 464.729 670.824 462.936C667.067 460.235 665.931 459.746 664.196 460.087C662.953 460.331 661.669 460.146 661.038 459.631C660.453 459.155 658.534 458.5 656.774 458.177C653.371 457.553 641.595 453.393 637.486 451.365C636.132 450.696 632.398 449.93 629.186 449.663C625.974 449.395 622.228 448.717 620.861 448.156C619.494 447.595 616.584 446.818 614.394 446.429C612.205 446.04 608.514 444.778 606.194 443.625C602.407 441.743 601.365 441.538 596.032 441.628C592.763 441.683 589.937 441.878 589.75 442.061C588.947 442.849 591.129 443.838 595.032 444.455C597.342 444.82 601.795 446.21 604.928 447.544C608.061 448.877 611.21 449.972 611.925 449.977C612.64 449.982 615.232 450.603 617.683 451.358C620.288 452.16 624.116 452.73 626.892 452.73C630.753 452.73 631.881 452.989 632.918 454.114C634.434 455.76 637.328 456.582 644.726 457.471C649.07 457.992 650.567 458.482 651.94 459.83C652.893 460.766 655.173 461.901 657.006 462.351C664.42 464.174 668.92 465.369 671.591 466.224C675.015 467.319 675.473 467.378 675.409 466.714V466.714ZM631.157 454.802C631.157 454.422 630.604 454.116 629.927 454.122C628.875 454.131 628.85 454.23 629.751 454.802C631.078 455.644 631.157 455.644 631.157 454.802ZM661.669 448.71C662.358 447.616 659.346 443.752 657.803 443.752C656.577 443.752 656.455 443.57 657.138 442.761C657.599 442.216 658.889 441.573 660.005 441.332C661.25 441.063 662.211 440.312 662.492 439.388C662.743 438.56 664.448 435.707 666.28 433.048C668.113 430.39 670.276 426.816 671.088 425.107C678.108 410.33 679.85 407.223 682.857 404.108C688.249 398.523 690.204 394.553 692.408 384.707C693.06 381.797 693.987 379.902 695.525 378.338C696.729 377.114 698.556 374.425 699.585 372.362C700.613 370.299 702.277 367.651 703.282 366.479C704.286 365.306 706.007 362.557 707.105 360.37C708.204 358.183 711.105 354.009 713.552 351.095C720.541 342.774 724.144 337.171 728.797 327.388C730.062 324.73 731.826 321.777 732.719 320.828C734.63 318.795 737.682 313.612 738.412 311.16C738.695 310.21 740.231 307.268 741.826 304.621C743.42 301.974 745.887 297.624 747.308 294.953C753.438 283.434 754.873 280.859 757.716 276.285C759.368 273.626 761.13 270.985 761.631 270.415C762.131 269.845 763.999 266.636 765.782 263.283C767.565 259.93 769.52 256.444 770.125 255.536C772.192 252.439 770.718 251.989 767.967 254.877C765.104 257.883 758.437 267.429 758.437 268.521C758.437 268.894 757.25 271.095 755.8 273.414C754.35 275.732 752.684 278.725 752.099 280.065C751.515 281.404 749.576 284.676 747.792 287.334C746.009 289.993 743.956 293.257 743.23 294.588C742.033 296.783 734.185 306.843 732.976 307.731C732.699 307.934 731.953 309.333 731.318 310.839C728.78 316.854 726.726 320.673 725.387 321.863C724.613 322.551 723.98 323.535 723.98 324.05C723.98 324.564 722.873 326.533 721.519 328.424C720.165 330.316 719.058 332.012 719.058 332.194C719.058 332.953 711.943 344.277 709.281 347.757C707.696 349.828 706.4 352.031 706.4 352.654C706.4 353.277 705.416 354.994 704.213 356.471C703.009 357.947 700.968 360.709 699.677 362.608C698.385 364.508 696.354 367.406 695.164 369.05C693.973 370.693 692.454 373.081 691.789 374.357C691.123 375.632 688.6 379.501 686.183 382.955C683.766 386.408 681.788 389.475 681.788 389.77C681.788 390.456 672.486 404.542 667.598 411.257C665.54 414.085 663.143 417.814 662.271 419.544C659.583 424.878 655.371 431.329 653.954 432.282C653.212 432.782 650.706 433.398 648.386 433.652C646.065 433.906 643.376 434.676 642.409 435.362C639.547 437.394 637.359 437.661 635.747 436.175C634.699 435.209 632.834 434.751 628.696 434.442L623.071 434.022L625.532 435.345C626.885 436.072 629.575 436.889 631.509 437.162C633.443 437.434 635.974 438.062 637.135 438.557C642.243 440.738 645.296 441.62 649.253 442.06C654.555 442.649 655.679 443.231 654.413 444.729C653.801 445.454 652.887 445.672 651.646 445.391C647.627 444.481 642.625 442.89 639.947 441.67C638.4 440.965 634.942 440.016 632.263 439.561C629.584 439.106 625.698 437.998 623.629 437.1C621.559 436.201 619.139 435.465 618.251 435.465C617.363 435.465 613.539 434.392 609.753 433.081C604.751 431.348 600.778 430.504 595.221 429.994C591.015 429.609 586.637 428.817 585.492 428.236C584.346 427.654 582.582 427.178 581.57 427.178C580.559 427.178 579.066 426.829 578.252 426.401C577.439 425.974 573.529 424.762 569.563 423.708C565.597 422.655 560.35 420.838 557.903 419.67C555.456 418.502 552.188 417.261 550.641 416.912C543.184 415.231 539.208 413.917 537.28 412.5C535.519 411.206 534.355 410.967 530.245 411.053C525.458 411.153 518.608 412.8 516.598 414.335C515.584 415.109 512.316 421.801 512.316 423.103C512.316 423.499 514.144 421.936 516.378 419.631C519.008 416.916 521 415.438 522.029 415.438C522.902 415.438 524.397 414.937 525.35 414.323C526.944 413.297 527.273 413.297 529.474 414.323C530.79 414.937 532.446 415.438 533.153 415.438C533.861 415.438 536.028 416.039 537.97 416.773C539.911 417.507 544.189 419.079 547.476 420.265C550.764 421.451 554.403 422.917 555.563 423.523C556.723 424.129 558.617 425.103 559.771 425.687C560.925 426.272 564.089 427.171 566.803 427.686C569.516 428.201 573.161 428.9 574.901 429.24C576.642 429.58 579.4 429.877 581.03 429.9C582.661 429.922 585.034 430.378 586.304 430.913C587.574 431.447 590.671 432.412 593.184 433.058C598.051 434.307 609.74 438.007 614.984 439.957C616.8 440.633 622.492 441.492 628.345 441.974C638.082 442.775 640.625 443.397 643.213 445.608C643.848 446.151 647.646 447.158 651.651 447.845C660.52 449.367 661.218 449.427 661.669 448.71V448.71ZM665.949 443.344C667.727 439.665 666.909 439.173 664.305 442.356C662.904 444.068 662.143 445.634 662.397 446.282C662.965 447.736 664.401 446.549 665.949 443.344V443.344ZM522.688 439.206C522.018 438.548 520.675 439.614 521.174 440.407C521.471 440.879 521.864 440.867 522.369 440.371C522.783 439.965 522.927 439.44 522.688 439.206V439.206ZM583.34 440.326C583.34 439.581 576.881 437.537 574.528 437.537C573.69 437.537 570.917 436.449 568.366 435.12C563.726 432.702 562 432.308 559.755 433.154C558.164 433.754 565.583 437.184 569.979 437.882C571.719 438.158 573.46 438.618 573.846 438.904C576.128 440.59 583.34 441.671 583.34 440.326ZM593.184 438.936C593.184 437.197 583.998 434.551 583.072 436.023C582.828 436.411 583.816 437.336 585.269 438.079C588.072 439.511 593.184 440.065 593.184 438.936V438.936ZM578.769 434.775C577.294 433.175 578.16 432.986 580.803 434.333C582.809 435.355 586.361 435.044 585.966 433.882C585.555 432.669 580.316 431.228 577.9 431.662C576.648 431.887 575.038 431.764 574.323 431.387C573.607 431.011 569.727 430.044 565.7 429.238C561.673 428.432 557.903 427.36 557.323 426.854C555.882 425.601 540.295 419.924 535.522 418.915C533.395 418.465 530.622 417.581 529.361 416.952C527.489 416.017 526.812 415.963 525.679 416.658C524.915 417.127 523.874 417.51 523.366 417.51C521.885 417.51 516.535 421.183 516.535 422.2C516.535 423.191 517.686 422.988 522.071 421.226C525.112 420.003 527.007 420.023 530.139 421.308C531.528 421.878 533.878 422.344 535.363 422.344C537.137 422.344 538.878 422.936 540.444 424.071C541.755 425.02 543.409 425.797 544.12 425.797C544.83 425.797 548.013 426.782 551.191 427.986C554.369 429.19 559.028 430.36 561.543 430.587C564.569 430.859 567.039 431.559 568.844 432.654C572.139 434.654 576.056 436.085 578.35 436.126C579.997 436.155 580.008 436.121 578.769 434.775V434.775ZM482.079 433.532C482.079 431.661 480.656 430.631 478.07 430.631C475.054 430.631 475.036 432.104 478.035 433.569C481.057 435.046 482.079 435.037 482.079 433.532H482.079ZM671.218 431.708C671.205 431.306 670.731 431.58 670.163 432.317C669.595 433.054 669.14 433.987 669.153 434.389C669.165 434.791 669.64 434.517 670.207 433.78C670.775 433.042 671.23 432.11 671.218 431.708ZM641.13 432.358C642.8 430.978 643.99 430.631 647.057 430.631C650.432 430.631 651.155 430.37 653.054 428.462C654.241 427.269 656.428 423.825 657.914 420.808C659.399 417.791 661.502 414.198 662.587 412.824C666.195 408.252 684.171 381.014 686.85 376.059C687.779 374.34 690.58 370.082 693.075 366.595C698.653 358.799 705.927 347.668 709.213 341.901C710.567 339.525 712.623 336.127 713.784 334.351C719.931 324.935 721.749 321.878 725.52 314.613C727.787 310.245 730.844 305.272 732.314 303.563C736.015 299.259 745.047 285.321 749.647 276.815C754.951 267.006 759.893 259.131 763.442 254.832C769.357 247.667 772.388 242.94 773.58 239.023C774.912 234.644 774.239 233.903 768.608 233.551C761.546 233.111 757.552 232.301 753.515 230.49C751.387 229.536 746.979 228.331 743.717 227.812C740.456 227.293 737.45 226.602 737.037 226.275C735.543 225.096 727.02 222.218 721.519 221.037C718.425 220.372 714.084 219.246 711.872 218.534C709.66 217.822 706.91 217.24 705.761 217.24C704.611 217.24 701.406 216.437 698.637 215.457C695.869 214.476 692.132 213.264 690.333 212.763C686.988 211.832 678.189 208.504 672.803 206.133C671.149 205.405 668.401 204.809 666.696 204.809C664.991 204.809 662.761 204.497 661.739 204.116C658.526 202.916 652.629 203.023 649.883 204.331C648.491 204.995 646.16 206.034 644.704 206.641C640.512 208.39 639.334 209.07 633.7 212.993C630.782 215.025 628.207 217.2 627.978 217.827C627.749 218.454 626.185 220.054 624.503 221.383C622.714 222.798 620.977 224.963 620.317 226.603C619.697 228.144 618.718 230.009 618.142 230.747C615.786 233.76 613.769 237.111 613.358 238.694C613.119 239.618 611.782 242.084 610.388 244.173C608.994 246.262 606.934 249.735 605.809 251.892C604.684 254.048 603.445 256.006 603.054 256.243C602.664 256.48 601.211 258.989 599.825 261.818C598.439 264.647 597.064 266.962 596.77 266.962C595.838 266.962 591.962 273.424 591.43 275.867C590.869 278.437 587.639 284.149 585.012 287.215C584.092 288.288 583.34 289.448 583.34 289.791C583.34 290.135 581.795 292.674 579.907 295.436C576.668 300.173 574.069 304.472 570.61 310.814C569.781 312.334 568.513 314.129 567.791 314.804C567.07 315.48 566.277 316.826 566.029 317.797C565.78 318.768 564.849 320.278 563.959 321.152C563.069 322.026 561.991 324.02 561.562 325.583C561.134 327.146 560.496 328.424 560.145 328.424C559.794 328.424 559.095 329.192 558.59 330.131C558.086 331.07 556.727 333.633 555.57 335.828C554.414 338.023 552.278 341.323 550.824 343.161C549.369 345 548.179 346.864 548.178 347.305C548.177 347.746 547.255 349.165 546.128 350.46C545.001 351.754 543.251 354.474 542.239 356.505C540.333 360.328 538.657 362.92 535.346 367.165C534.282 368.529 533.412 369.943 533.412 370.307C533.412 371.121 529.717 376.218 526.624 379.669C523.863 382.751 521.686 386.808 520.255 391.543C519.671 393.473 517.594 397.386 515.64 400.239C511.807 405.833 508.405 412.518 509.063 413.164C509.732 413.822 511.613 411.911 511.613 410.573C511.613 409.225 517.699 403.601 521.106 401.802C522.54 401.044 525.032 400.683 528.884 400.674C534.673 400.66 538.271 401.586 540.796 403.741C541.569 404.401 543.468 405.584 545.015 406.37C553.389 410.622 556.692 411.824 562.197 412.619C566.326 413.216 569.636 414.223 573.096 415.935C575.829 417.287 580.597 419.1 583.691 419.964C590.101 421.753 594.021 423.027 601.859 425.87C604.889 426.97 607.934 427.869 608.626 427.869C609.317 427.869 611.27 428.472 612.965 429.208C614.838 430.022 617.936 430.607 620.858 430.7C623.504 430.784 627.299 431.247 629.292 431.728C631.285 432.209 634.181 432.897 635.728 433.256C637.275 433.616 638.654 433.949 638.791 433.997C638.929 434.045 639.981 433.307 641.13 432.358V432.358ZM555.915 432.821C555.915 431.916 549.653 429.343 544.87 428.282C542.469 427.75 539.572 426.663 538.432 425.865C537.241 425.032 535.273 424.416 533.803 424.416C532.397 424.416 529.994 423.788 528.462 423.021C525.789 421.682 525.534 421.671 522.127 422.766C519.579 423.584 518.639 424.221 518.796 425.022C518.97 425.909 519.951 426.144 523.577 426.167C526.086 426.183 529.246 426.617 530.599 427.131C536.167 429.244 538.244 429.838 543.609 430.852C546.703 431.437 550.342 432.217 551.696 432.584C554.926 433.461 555.915 433.517 555.915 432.821V432.821ZM671.943 429.941C671.943 429.561 671.804 429.25 671.633 429.25C671.462 429.25 671.127 429.561 670.888 429.941C670.649 430.321 670.789 430.631 671.198 430.631C671.608 430.631 671.943 430.321 671.943 429.941ZM599.341 427.706C599.182 427.237 597.686 426.624 596.018 426.344C594.35 426.065 591.034 424.939 588.649 423.843C586.264 422.747 582.799 421.627 580.948 421.355C577.231 420.807 571.66 418.658 569.898 417.092C569.273 416.537 565.293 415.499 561.054 414.784C553.338 413.484 548.824 412.065 546.799 410.301C543.646 407.556 531.178 402.317 527.797 402.317C524.971 402.317 516.44 407.391 513.985 410.531C512.68 412.2 511.613 413.795 511.613 414.076C511.613 414.357 510.98 414.749 510.207 414.948C509.135 415.223 508.8 415.89 508.8 417.75C508.8 422.567 511.522 421.597 513.374 416.12C514.596 412.507 517.83 409.914 521.113 409.914C522.04 409.914 523.525 409.638 524.413 409.301C525.302 408.964 527.688 408.314 529.715 407.857L533.402 407.026L537.009 409.626C540.937 412.458 547.06 414.748 550.704 414.748C553.131 414.748 556.687 415.834 557.307 416.765C558.332 418.304 570.214 422.344 573.715 422.344C574.572 422.344 576.454 422.966 577.898 423.725C579.341 424.485 580.956 425.107 581.487 425.107C582.018 425.107 584.788 425.87 587.643 426.802C593.305 428.652 599.833 429.157 599.341 427.706V427.706ZM676.027 422.671C675.81 422.459 675.417 422.842 675.153 423.523C674.771 424.507 674.852 424.587 675.546 423.91C676.027 423.441 676.243 422.884 676.027 422.671ZM469.61 420.51C469.134 420.321 468.185 420.309 467.5 420.484C466.816 420.66 467.206 420.814 468.366 420.828C469.526 420.842 470.086 420.699 469.61 420.51V420.51ZM502.609 417.884C502.29 415.048 499.152 410.846 496.619 409.863C492.604 408.305 486.346 404.245 485.918 402.921C485.688 402.209 485.224 401.627 484.887 401.627C484.55 401.627 482.844 400.412 481.097 398.927L477.921 396.227L467.869 396.449C462.341 396.572 452.28 396.91 445.512 397.201C438.744 397.492 432.415 397.703 431.448 397.67C430.481 397.638 425.576 397.623 420.548 397.639C415.52 397.654 409.192 397.589 406.484 397.493C399.514 397.247 386.321 397.271 380.114 397.541C374.118 397.801 367.148 396.601 362.598 394.525L359.498 393.11L357.954 394.873C357.104 395.843 355.701 397.009 354.835 397.464C353.763 398.028 353.375 398.722 353.619 399.641C353.826 400.417 353.45 401.492 352.735 402.171C351.316 403.519 350.539 405.969 351.198 407.016C351.737 407.872 388.781 406.881 395.233 405.838C397.554 405.462 405.276 404.968 412.395 404.739C419.513 404.51 425.842 404.066 426.459 403.751C427.076 403.437 431.536 402.998 436.37 402.777C441.205 402.555 448.799 402.045 453.247 401.643C466.725 400.425 476.995 402.708 484.125 408.508C485.513 409.637 488.767 411.626 491.355 412.928C493.944 414.229 497.244 416.422 498.688 417.8C501.66 420.634 502.922 420.662 502.609 417.884V417.884ZM681.027 413.803C682.798 410.99 683.103 408.322 681.469 409.938C680.085 411.308 678.091 416.129 678.908 416.129C679.269 416.129 680.222 415.082 681.027 413.803ZM700.071 381.098C700.071 380.577 700.554 379.233 701.144 378.112C701.734 376.992 701.971 376.075 701.671 376.075C700.944 376.075 697.258 380.644 697.258 381.546C697.258 381.937 696.651 383.237 695.909 384.435C695.167 385.634 694.734 387.059 694.947 387.603C695.379 388.709 700.071 382.753 700.071 381.098V381.098ZM764.775 285.855C765.93 283.521 766.875 281.393 766.875 281.125C766.875 280.857 767.328 279.658 767.881 278.461C768.434 277.264 769.726 274.11 770.751 271.451C771.777 268.792 773.35 264.752 774.248 262.473C775.146 260.194 775.745 258.193 775.58 258.026C774.85 257.285 773.241 260.131 771.503 265.236C770.469 268.274 769.018 271.584 768.28 272.59C767.542 273.597 766.712 275.306 766.436 276.388C765.938 278.347 763.797 283.409 761.204 288.761C760.456 290.305 759.85 292.014 759.859 292.559C759.883 294.089 762.393 290.665 764.775 285.855ZM501.592 406.371C500.142 405.207 498.955 403.819 498.955 403.286C498.955 401.797 499.945 402.127 501.741 404.216C502.64 405.261 503.853 406.659 504.438 407.324C506.123 409.238 504.48 408.687 501.592 406.371ZM504.584 401.975C502.705 400.01 503.196 398.735 505.159 400.48C505.869 401.111 506.82 401.627 507.273 401.627C507.726 401.627 508.097 402.093 508.097 402.663C508.097 404.231 506.43 403.905 504.584 401.975ZM507.839 395.929C506.555 392.945 507.681 391.676 509.526 394.03C510.27 394.98 510.886 396.3 510.894 396.965C510.921 399.004 508.861 398.306 507.839 395.929ZM511.427 390.855C511.196 390.628 511.18 389.999 511.392 389.456C511.688 388.7 512.004 388.655 512.75 389.263C513.285 389.699 513.723 390.328 513.723 390.662C513.723 391.346 512.069 391.485 511.427 390.855H511.427ZM514.426 386.145C514.426 385.606 514.234 384.674 513.999 384.073C513.727 383.376 513.954 382.981 514.627 382.981C515.698 382.981 516.535 384.369 516.535 386.145C516.535 386.684 516.061 387.124 515.481 387.124C514.9 387.124 514.426 386.684 514.426 386.145ZM518.67 379.573C517.708 377.809 517.75 377.456 518.921 377.456C519.843 377.456 520.755 378.858 520.755 380.275C520.755 381.399 519.42 380.95 518.67 379.573ZM521.751 373.675C521.497 372.681 521.511 371.649 521.783 371.382C522.384 370.792 524.382 373.331 524.06 374.277C523.563 375.744 522.188 375.385 521.751 373.675H521.751ZM525.401 368.767C524.783 367.186 524.877 365.026 525.564 365.026C526.177 365.026 527.787 368.049 527.787 369.202C527.787 370.292 525.859 369.941 525.401 368.767ZM528.49 361.918C528.49 359.072 529.341 358.791 530.487 361.26C531.63 363.724 531.512 364.335 529.896 364.335C528.758 364.335 528.49 363.875 528.49 361.918ZM532.734 356.093C531.772 354.329 531.814 353.976 532.985 353.976C533.907 353.976 534.819 355.378 534.819 356.795C534.819 357.919 533.484 357.47 532.734 356.093ZM539.281 342.552C539.052 341.966 539.016 341.337 539.202 341.154C539.828 340.539 541.851 341.685 541.851 342.655C541.851 343.962 539.799 343.879 539.281 342.552ZM543.741 337.647C543.036 336.955 543.148 333.949 543.878 333.949C544.429 333.949 544.691 334.517 545.308 337.039C545.51 337.867 544.402 338.297 543.741 337.647ZM549.153 331.337C547.991 330.603 547.308 327.918 548.152 327.405C548.555 327.16 549.212 327.803 549.61 328.833C550.455 331.014 550.267 332.042 549.153 331.337ZM553.278 324.29C551.472 322.845 551.208 321.519 552.726 321.519C553.808 321.519 555.46 323.93 555.081 324.957C554.96 325.287 554.148 324.987 553.278 324.29ZM558.025 315.65C557.552 315.089 557.361 314.125 557.602 313.508C557.958 312.598 558.24 312.547 559.087 313.238C560.253 314.189 560.465 315.712 559.51 316.291C559.168 316.499 558.499 316.21 558.025 315.65ZM561.783 308.022C561.554 307.436 561.519 306.807 561.704 306.625C562.331 306.01 564.353 307.156 564.353 308.126C564.353 309.433 562.302 309.35 561.783 308.022ZM566.002 300.426C565.773 299.84 565.756 299.193 565.964 298.989C566.582 298.381 569.351 300.122 568.902 300.836C568.258 301.859 566.463 301.606 566.002 300.426H566.002ZM569.979 292.514C569.979 291.747 570.448 291.133 571.034 291.133C571.62 291.133 572.088 291.747 572.088 292.514C572.088 293.281 571.62 293.895 571.034 293.895C570.448 293.895 569.979 293.281 569.979 292.514ZM574.461 285.284C574.221 284.67 574.237 283.959 574.496 283.703C575.091 283.119 577.411 284.509 577.224 285.338C576.971 286.46 574.904 286.42 574.461 285.284V285.284ZM581.406 278.245C580.09 277.723 580.25 272.487 581.582 272.487C582.363 272.487 582.636 273.292 582.636 275.594C582.636 277.304 582.557 278.678 582.461 278.648C582.364 278.618 581.889 278.436 581.406 278.245ZM586.75 269.034C586.692 267.515 586.613 265.961 586.574 265.581C586.536 265.201 586.798 264.813 587.157 264.718C588.053 264.48 589.068 268.339 588.61 270.242C588.003 272.761 586.864 272.021 586.75 269.034V269.034ZM592.218 261.351C591.552 258.082 591.688 256.459 592.602 256.758C593.588 257.081 594.27 263.509 593.318 263.509C592.955 263.509 592.459 262.538 592.218 261.351ZM597.734 251.618C597.121 250.049 597.569 248.146 598.634 247.798C599.673 247.458 599.815 250.231 598.837 251.75C598.273 252.626 598.12 252.607 597.734 251.618ZM601.754 241.982C601.997 239.569 603.732 238.362 603.732 240.606C603.732 242.5 603.017 244.173 602.206 244.173C601.836 244.173 601.633 243.187 601.754 241.982ZM605.842 232.433C605.842 232.053 606.159 231.742 606.545 231.742C606.932 231.742 607.249 232.053 607.249 232.433C607.249 232.813 606.932 233.123 606.545 233.123C606.159 233.123 605.842 232.813 605.842 232.433Z" fill="#FFB6AB" fill-opacity="0.7"/>
<path d="M1185.55 225.173C1181.67 230.793 1175.16 232.57 1170.73 231.424C1168.39 230.817 1165.47 229.134 1164.83 224.369C1161.71 206.542 1148.51 196.086 1136.2 194.078C1136.18 191.773 1136.06 189.427 1135.71 187.011C1133.84 174.192 1127.37 161.432 1117.48 151.07C1097.09 128.745 1039.34 86.8748 983.486 46.3885C975.535 40.6211 967.589 34.8625 959.845 29.2299C953.484 24.3158 947.291 25.6176 943.973 29.0892C940.656 32.5579 939.413 39.0436 943.967 45.4884C979.968 103.605 1032.09 181.754 1060.46 210.7C1069.31 219.959 1079.99 226.337 1090.91 228.993C1092.36 255.804 1113.32 275.687 1140.88 275.687C1170.64 275.684 1193.07 255.059 1193.07 227.715V214.248L1185.55 225.173ZM950.795 40.539C949.042 38.0526 949.076 36.047 949.849 35.2378C950.159 34.9153 950.652 34.7129 951.291 34.7129C952.246 34.7129 953.526 35.1586 955.005 36.2992C962.847 42.005 970.799 47.7695 978.753 53.5369C1034.3 93.8033 1091.73 135.439 1111.51 157.116L1111.58 157.186C1120.24 166.249 1125.89 177.306 1127.49 188.322C1129.02 198.845 1126.63 208.02 1120.76 214.166C1114.89 220.308 1106.12 222.809 1096.08 221.208C1085.55 219.528 1074.99 213.614 1066.29 204.507C1040.17 177.852 989.533 103.057 950.795 40.539ZM1140.88 266.984C1118.52 266.984 1101.32 251.479 1099.28 230.274C1100.16 230.327 1101.05 230.383 1101.92 230.383C1111.73 230.383 1120.34 226.917 1126.64 220.317C1131.17 215.579 1134.1 209.568 1135.42 202.768C1143.74 204.431 1154.18 211.773 1156.63 225.762C1157.59 232.881 1162.12 238.153 1168.74 239.868C1173.59 241.123 1178.82 240.367 1183.43 238.021C1178.27 256.909 1159.09 266.984 1140.88 266.984Z" fill="#FFB6AB" fill-opacity="0.7"/>
</svg>
